<?xml version="1.0" encoding="utf-8"?>
<!-- Generator: Adobe Illustrator 16.0.0, SVG Export Plug-In . SVG Version: 6.00 Build 0)  -->
<!DOCTYPE svg PUBLIC "-//W3C//DTD SVG 1.1//EN" "http://www.w3.org/Graphics/SVG/1.1/DTD/svg11.dtd">
<svg version="1.1" id="レイヤー_1" focusable="false"
	 xmlns="http://www.w3.org/2000/svg" xmlns:xlink="http://www.w3.org/1999/xlink" x="0px" y="0px" width="16px" height="16px"
	 viewBox="0 0 16 16" style="enable-background:new 0 0 16 16;" xml:space="preserve">
<style type="text/css">
<![CDATA[
	.st0{fill:#4C57BC;}
]]>
</style>
<path class="st0" d="M8,0.25c4.281,0,7.75,3.469,7.75,7.75S12.281,15.75,8,15.75S0.25,12.281,0.25,8S3.719,0.25,8,0.25z
	 M11.56,7.469L7.325,3.234c-0.294-0.294-0.769-0.294-1.06,0L5.734,3.766c-0.294,0.294-0.294,0.769,0,1.06L8.909,8l-3.175,3.175
	c-0.294,0.294-0.294,0.769,0,1.06l0.531,0.531c0.294,0.294,0.769,0.294,1.06,0l4.234-4.234C11.854,8.237,11.854,7.763,11.56,7.469z"
	/>
</svg>
